# xmcd
#
# Track frame offsets: 
#        150
#        4817
#        15878
#        28871
#        47347
#        62581
#        82669
#        100324
#        117670
#        132423
#        143699
#        148229
#        160438
#        167204
#
# Disc length: 2380 seconds
#
# Revision: 0
# Processed by: cddbd v1.5.2PL0 Copyright (c) Steve Scherf et al.
# Submitted via: ExactAudioCopy v0.90b4
#
DISCID=b6094a0e
DTITLE=Southern Tenant Folk Union - Southern Tenant Folk Union
DYEAR=2007
DGENRE=Bluegrass
TTITLE0=Southern Folk Theme in A
TTITLE1=Sweeter Times
TTITLE2=All You Need To Know
TTITLE3=The Cold Flagstone
TTITLE4=A Little Deeper
TTITLE5=Mosul Train
TTITLE6=Who Is Going To Love You Now
TTITLE7=Rosalind
TTITLE8=The First and Last
TTITLE9=The Green Eyed Girl (from Louisville)
TTITLE10=Southern Folk Theme Vocal Version
TTITLE11=Here In The Dock
TTITLE12=Southern Folk Theme in G
TTITLE13=Candle Waltz
EXTD=
EXTT0=
EXTT1=
EXTT2=
EXTT3=
EXTT4=
EXTT5=
EXTT6=
EXTT7=
EXTT8=
EXTT9=
EXTT10=
EXTT11=
EXTT12=
EXTT13=
PLAYORDER=
